# Blender 4.3.2
# www.blender.org
mtllib mirrored_moon.mtl
o Cube
v -1.000000 -1.000000 -0.081000
v 0.041982 -0.573573 -0.073649
v -1.000000 -1.000000 0.081000
v -1.000000 1.000000 -0.081000
v -0.115920 -0.562274 -0.073649
v -1.000000 1.000000 0.081000
v 1.000000 -1.000000 -0.081000
v -0.115920 0.591141 -0.073649
v 1.000000 -1.000000 0.081000
v 1.000000 1.000000 -0.081000
v 0.041982 0.602439 -0.073649
v 1.000000 1.000000 0.081000
v 0.199884 0.591141 -0.073649
v 0.351718 0.557680 -0.073649
v 0.491649 0.503342 -0.073649
v 0.614299 0.430216 -0.073649
v 0.714956 0.341112 -0.073649
v 0.789750 0.239453 -0.073649
v 0.835808 0.129147 -0.073649
v 0.851360 0.014433 -0.073649
v 0.835808 -0.100281 -0.073649
v 0.789750 -0.210587 -0.073649
v 0.714956 -0.312245 -0.073649
v 0.614299 -0.401350 -0.073649
v 0.491649 -0.474476 -0.073649
v 0.351718 -0.528813 -0.073649
v 0.199884 -0.562274 -0.073649
v 0.042822 -0.306705 -0.073649
v -0.054071 -0.342397 -0.073649
v -0.159207 0.393242 -0.073649
v -0.159207 -0.364376 -0.073649
v 0.291901 0.014433 -0.073649
v 0.281132 0.089783 -0.073649
v 0.281132 -0.060917 -0.073649
v 0.249239 -0.133371 -0.073649
v 0.249239 0.162237 -0.073649
v -0.054071 0.371263 -0.073649
v 0.042822 0.335572 -0.073649
v 0.127750 0.287539 -0.073649
v 0.127750 -0.258673 -0.073649
v 0.197449 0.229011 -0.073649
v 0.197449 -0.200145 -0.073649
v -0.264108 -0.529617 -0.073649
v -0.264108 0.558483 -0.073649
v -0.264108 0.400362 -0.073649
v -0.264108 -0.371496 -0.073649
v -0.264108 0.400362 0.081000
v -0.264108 0.558483 0.081000
v -0.159207 0.393242 0.081000
v -0.115920 0.591141 0.081000
v 0.041982 0.602439 0.081000
v -0.054071 0.371263 0.081000
v 0.127750 0.287539 0.081000
v 0.199884 0.591141 0.081000
v 0.042822 0.335572 0.081000
v 0.491649 0.503342 0.081000
v 0.351718 0.557680 0.081000
v 0.197449 0.229011 0.081000
v -0.264108 -0.529617 0.081000
v -0.159207 -0.364376 0.081000
v -0.264108 -0.371496 0.081000
v 0.041982 -0.573573 0.081000
v 0.042822 -0.306705 0.081000
v -0.054071 -0.342397 0.081000
v -0.115920 -0.562274 0.081000
v 0.127750 -0.258673 0.081000
v 0.199884 -0.562274 0.081000
v 0.197449 -0.200145 0.081000
v 0.249239 0.162237 0.081000
v 0.249239 -0.133371 0.081000
v 0.291901 0.014433 0.081000
v 0.789750 0.239453 0.081000
v 0.851360 0.014433 0.081000
v 0.835808 -0.100281 0.081000
v 0.835808 0.129147 0.081000
v 0.714956 -0.312245 0.081000
v 0.789750 -0.210587 0.081000
v 0.714956 0.341112 0.081000
v 0.351718 -0.528813 0.081000
v 0.491649 -0.474476 0.081000
v 0.614299 -0.401350 0.081000
v 0.614299 0.430216 0.081000
v 0.281132 -0.060917 0.081000
v 0.281132 0.089783 0.081000
v 0.053991 0.329255 0.081000
v 0.282548 -0.051008 0.081000
v 0.204259 -0.191364 0.081000
v 0.053991 -0.300389 0.081000
v 0.507778 0.493726 0.081000
v 0.219851 0.586741 0.081000
v -0.095155 0.592627 0.081000
v -0.264108 0.421156 0.081000
v -0.264108 -0.508823 0.081000
v -0.264108 0.418739 0.063027
v -0.264108 -0.511240 0.063027
v -0.251916 0.399535 0.063027
v 0.505903 0.494844 0.063027
v -0.042810 -0.338249 0.063027
v 0.203468 -0.192384 0.063027
v 0.052693 -0.301123 0.063027
v -0.251916 -0.370668 0.063027
v -0.097568 0.592454 0.063027
v -0.042810 0.367115 0.063027
v 0.135851 -0.251871 0.063027
v 0.290649 0.023190 0.063027
v 0.052693 0.329990 0.063027
v -0.264108 0.400362 -0.081000
v -0.159207 0.393242 -0.081000
v -0.264108 0.558483 -0.081000
v 0.042822 0.335572 -0.081000
v 0.041982 0.602439 -0.081000
v -0.054071 0.371263 -0.081000
v -0.115920 0.591141 -0.081000
v 0.127750 0.287539 -0.081000
v 0.199884 0.591141 -0.081000
v 0.249239 -0.133371 -0.081000
v 0.249239 0.162237 -0.081000
v 0.197449 0.229011 -0.081000
v 0.291901 0.014433 -0.081000
v 0.789750 -0.210587 -0.081000
v 0.851360 0.014433 -0.081000
v 0.835808 -0.100281 -0.081000
v 0.835808 0.129147 -0.081000
v 0.714956 -0.312245 -0.081000
v 0.789750 0.239453 -0.081000
v 0.714956 0.341112 -0.081000
v 0.491649 -0.474476 -0.081000
v 0.614299 -0.401350 -0.081000
v 0.281132 0.089783 -0.081000
v 0.614299 0.430216 -0.081000
v 0.491649 0.503342 -0.081000
v 0.351718 0.557680 -0.081000
v 0.281132 -0.060917 -0.081000
v -0.264108 -0.371496 -0.081000
v -0.264108 -0.529617 -0.081000
v -0.159207 -0.364376 -0.081000
v -0.115920 -0.562274 -0.081000
v -0.054071 -0.342397 -0.081000
v 0.042822 -0.306705 -0.081000
v 0.041982 -0.573573 -0.081000
v 0.127750 -0.258673 -0.081000
v 0.351718 -0.528813 -0.081000
v 0.199884 -0.562274 -0.081000
v 0.197449 -0.200145 -0.081000
v -0.264108 -0.426533 0.081000
v -0.264108 0.503446 0.081000
v 0.218367 0.587068 0.069506
v 0.753881 0.288206 -0.073649
v 0.813720 0.182047 -0.073649
v 0.843902 0.069447 -0.073649
v 0.843267 -0.045267 -0.073649
v 0.811838 -0.157687 -0.073649
v 0.750825 -0.263493 -0.073649
v 0.662571 -0.358618 -0.073649
v 0.550468 -0.439407 -0.073649
v 0.418825 -0.502755 -0.073649
v 0.272699 -0.546227 -0.073649
v 0.117707 -0.568154 -0.073649
v -0.040194 -0.567693 -0.073649
v -0.193041 -0.545278 -0.073649
v 0.161176 0.259471 -0.073649
v -0.250469 0.399437 0.079258
v -0.042070 0.366843 0.072015
v 0.290604 0.023505 0.067936
v 0.282427 -0.051855 0.067771
v 0.136207 -0.251571 0.069044
v -0.042070 -0.337976 0.072015
v -0.250469 -0.370570 0.079258
v -0.264108 0.495113 0.019021
v -0.264108 -0.434866 0.019021
v 0.746656 -0.269159 -0.008103
v 0.264237 -0.548092 -0.008103
v -0.201301 -0.543458 -0.008103
v 0.842400 -0.051661 -0.008103
v -0.048995 -0.567063 -0.008103
v 0.543632 -0.443482 -0.008103
v 0.844769 0.063053 -0.008103
v 0.809271 -0.163835 -0.008103
v 0.157291 0.262733 -0.008103
v 0.108907 -0.568784 -0.008103
v 0.411026 -0.505783 -0.008103
v 0.816287 0.175899 -0.008103
v 0.758050 0.282540 -0.008103
v 0.656961 -0.363584 -0.008103
vn -1.0000 -0.0000 -0.0000
vn -0.0000 1.0000 -0.0000
vn 1.0000 -0.0000 -0.0000
vn -0.0000 -1.0000 -0.0000
vn -0.0000 -0.0000 -1.0000
vn -0.0000 -0.0000 1.0000
vn 0.0714 0.9974 -0.0000
vn 0.2152 0.9766 -0.0000
vn 0.2152 -0.9766 -0.0000
vn 0.0714 -0.9974 -0.0000
vn -0.0714 -0.9974 -0.0000
vn -0.2152 -0.9766 -0.0000
vn -0.3620 -0.9322 -0.0000
vn -0.5121 -0.8589 -0.0000
vn -0.6628 -0.7488 -0.0000
vn -0.8055 -0.5926 -0.0000
vn -0.9228 -0.3853 -0.0000
vn -0.9909 -0.1343 -0.0000
vn -0.9909 0.1343 -0.0000
vn -0.9228 0.3853 -0.0000
vn -0.8055 0.5926 -0.0000
vn -0.6628 0.7488 -0.0000
vn -0.5121 0.8589 -0.0000
vn -0.3620 0.9322 -0.0000
vn -0.2152 0.9766 -0.0000
vn -0.0714 0.9974 -0.0000
vn 0.0677 0.9977 -0.0000
vn 0.2046 0.9788 -0.0000
vn 0.3457 0.9384 -0.0000
vn 0.4923 0.8704 -0.0000
vn 0.6431 0.7658 -0.0000
vn 0.7902 0.6129 -0.0000
vn 0.9153 0.4029 -0.0000
vn 0.9899 0.1415 -0.0000
vn 0.9899 -0.1415 -0.0000
vn 0.9153 -0.4029 -0.0000
vn 0.7902 -0.6129 -0.0000
vn 0.6431 -0.7658 -0.0000
vn 0.4923 -0.8704 -0.0000
vn 0.3457 -0.9384 -0.0000
vn 0.2046 -0.9788 -0.0000
vn 0.0677 -0.9977 -0.0000
vt 0.375000 0.000000
vt 0.625000 0.000000
vt 0.625000 0.250000
vt 0.375000 0.250000
vt 0.625000 0.500000
vt 0.375000 0.500000
vt 0.625000 0.750000
vt 0.375000 0.750000
vt 0.625000 1.000000
vt 0.375000 1.000000
vt 0.326787 0.571223
vt 0.326787 0.675169
vt 0.339369 0.664031
vt 0.348719 0.651323
vt 0.354476 0.637535
vt 0.356420 0.623196
vt 0.354476 0.608857
vt 0.348719 0.595068
vt 0.339369 0.582361
vt 0.281155 0.641671
vt 0.274681 0.650018
vt 0.265969 0.657334
vt 0.255353 0.663338
vt 0.243241 0.667800
vt 0.230099 0.670547
vt 0.216986 0.671437
vt 0.216986 0.691202
vt 0.235510 0.695284
vt 0.255248 0.696697
vt 0.274986 0.695284
vt 0.293965 0.691102
vt 0.311456 0.684309
vt 0.125000 0.750000
vt 0.125000 0.500000
vt 0.311456 0.562082
vt 0.293965 0.555290
vt 0.274985 0.551107
vt 0.255248 0.549695
vt 0.235510 0.551107
vt 0.216986 0.555190
vt 0.216987 0.574955
vt 0.230099 0.575845
vt 0.243241 0.578592
vt 0.255353 0.583054
vt 0.265969 0.589058
vt 0.274681 0.596374
vt 0.281155 0.604720
vt 0.285142 0.613777
vt 0.286488 0.623196
vt 0.285141 0.632615
vt 0.714859 0.613777
vt 0.718845 0.604720
vt 0.725319 0.596374
vt 0.734031 0.589058
vt 0.743251 0.583843
vt 0.744647 0.583053
vt 0.756759 0.578592
vt 0.769901 0.575845
vt 0.783014 0.574955
vt 0.783014 0.572356
vt 0.783013 0.562069
vt 0.783013 0.555190
vt 0.764490 0.551107
vt 0.761894 0.550922
vt 0.744752 0.549695
vt 0.725014 0.551107
vt 0.722519 0.551657
vt 0.706035 0.555290
vt 0.688544 0.562082
vt 0.686528 0.563284
vt 0.673213 0.571223
vt 0.875000 0.500000
vt 0.875000 0.750000
vt 0.673213 0.675169
vt 0.688544 0.684309
vt 0.706035 0.691102
vt 0.725015 0.695284
vt 0.744752 0.696697
vt 0.764490 0.695284
vt 0.783014 0.691202
vt 0.783014 0.688603
vt 0.783014 0.678317
vt 0.783014 0.671437
vt 0.769901 0.670547
vt 0.756759 0.667800
vt 0.744647 0.663338
vt 0.743251 0.662549
vt 0.734031 0.657334
vt 0.725319 0.650018
vt 0.724468 0.648920
vt 0.718845 0.641671
vt 0.714858 0.632614
vt 0.714682 0.631376
vt 0.713512 0.623196
vt 0.660631 0.582361
vt 0.651281 0.595068
vt 0.645524 0.608857
vt 0.643580 0.623196
vt 0.645524 0.637535
vt 0.651281 0.651323
vt 0.660631 0.664031
vt 0.968750 0.500000
vt 0.981995 0.527868
vt 0.983737 0.500000
vt 1.000000 0.565752
vt 1.000000 0.500000
vt 0.968750 0.565752
vt 0.938250 0.500000
vt 0.951177 0.527868
vt 0.952877 0.500000
vt 0.938250 0.565752
vt 0.561750 0.500000
vt 0.531250 0.500000
vt 0.531250 0.565752
vt 0.500000 0.565752
vt 0.527140 0.565752
vt 0.527618 0.558110
vt 0.500000 0.500000
vt 0.468750 0.500000
vt 0.468750 0.565752
vt 0.464641 0.565752
vt 0.464946 0.560865
vt 0.437500 0.565752
vt 0.437500 0.500000
vt 0.406250 0.500000
vt 0.406250 0.565752
vt 0.375000 0.565752
vt 0.402140 0.565752
vt 0.402618 0.558110
vt 0.343750 0.500000
vt 0.343750 0.565752
vt 0.312500 0.500000
vt 0.325745 0.527868
vt 0.327487 0.500000
vt 0.312500 0.565752
vt 0.281250 0.500000
vt 0.294495 0.527868
vt 0.296237 0.500000
vt 0.281250 0.565752
vt 0.250000 0.500000
vt 0.263245 0.527868
vt 0.264987 0.500000
vt 0.250000 0.565752
vt 0.218750 0.500000
vt 0.231995 0.527868
vt 0.233737 0.500000
vt 0.218750 0.565752
vt 0.187500 0.500000
vt 0.200745 0.527868
vt 0.202487 0.500000
vt 0.187500 0.565752
vt 0.156250 0.500000
vt 0.169495 0.527868
vt 0.171237 0.500000
vt 0.156250 0.565752
vt 0.138245 0.527868
vt 0.139987 0.500000
vt 0.125000 0.565752
vt 0.093750 0.500000
vt 0.106995 0.527868
vt 0.108737 0.500000
vt 0.093750 0.565752
vt 0.062500 0.500000
vt 0.075745 0.527868
vt 0.077487 0.500000
vt 0.062500 0.565752
vt 0.031250 0.500000
vt 0.044495 0.527868
vt 0.046237 0.500000
vt 0.031250 0.565752
vt 0.000000 0.500000
vt 0.013245 0.527868
vt 0.014987 0.500000
vt 0.000000 0.565752
vt 0.468750 0.672264
vt 0.498732 0.644523
vt 0.498732 0.672264
vt 0.495248 0.669040
vt 0.494834 0.671952
vt 0.468750 0.644523
vt 0.437500 0.644523
vt 0.437500 0.672264
vt 0.406250 0.672264
vt 0.433868 0.669040
vt 0.433629 0.670652
vt 0.406250 0.644523
vt 0.402141 0.672264
vt 0.375000 0.672264
vt 0.402618 0.669040
vt 0.375000 0.644523
vt 0.361755 0.656281
vt 0.360013 0.644523
vt 0.343750 0.672264
vt 0.343750 0.644523
vt 0.312500 0.644523
vt 0.312500 0.672264
vt 0.281250 0.644523
vt 0.253762 0.669921
vt 0.253632 0.669040
vt 0.250000 0.672264
vt 0.250000 0.644523
vt 0.281250 0.672264
vt 0.222859 0.672264
vt 0.222508 0.669891
vt 0.218750 0.644523
vt 0.218750 0.672264
vt 0.187500 0.644523
vt 0.187500 0.672264
vt 0.160359 0.672264
vt 0.159882 0.669040
vt 0.156250 0.672264
vt 0.156250 0.644523
vt 0.128792 0.670119
vt 0.128632 0.669040
vt 0.125000 0.672264
vt 0.125000 0.644523
vt 0.097859 0.672264
vt 0.097382 0.669040
vt 0.093750 0.672264
vt 0.093750 0.644523
vt 0.066371 0.670652
vt 0.066132 0.669040
vt 0.062500 0.672264
vt 0.062500 0.644523
vt 0.031250 0.644523
vt 0.005166 0.671952
vt 0.004752 0.669040
vt 0.001268 0.672264
vt 0.001268 0.644523
vt 0.031250 0.672264
vt 0.404055 0.039051
vt 0.407876 0.042958
vt 0.375000 0.042958
vt 0.375000 0.009344
vt 0.407876 0.009344
vt 0.407876 0.021044
vt 0.394700 0.022816
vt 0.407876 0.038538
vt 0.404055 0.236749
vt 0.407876 0.240656
vt 0.375000 0.240656
vt 0.375000 0.207042
vt 0.407876 0.207042
vt 0.407876 0.218742
vt 0.394700 0.220513
vt 0.407876 0.236235
vt 0.983737 0.760214
vt 1.000000 0.760214
vt 1.000000 0.757089
vt 0.968750 0.757089
vt 0.968750 0.760214
vt 0.952877 0.760214
vt 0.938250 0.757089
vt 0.938250 0.760214
vt 0.561750 0.825966
vt 0.561750 0.760214
vt 0.531250 0.825966
vt 0.561750 0.757089
vt 0.531250 0.757089
vt 0.531250 0.760214
vt 0.500000 0.757089
vt 0.500000 0.760214
vt 0.468750 0.757089
vt 0.468750 0.760214
vt 0.500000 0.825966
vt 0.468750 0.825966
vt 0.437500 0.757089
vt 0.437500 0.760214
vt 0.464946 0.821079
vt 0.437500 0.825966
vt 0.406250 0.757089
vt 0.406250 0.760214
vt 0.406250 0.825966
vt 0.375000 0.757089
vt 0.375000 0.760214
vt 0.343750 0.757089
vt 0.343750 0.760214
vt 0.375000 0.825966
vt 0.343750 0.825966
vt 0.327487 0.760214
vt 0.312500 0.757089
vt 0.312500 0.760214
vt 0.296237 0.760214
vt 0.281250 0.757089
vt 0.281250 0.760214
vt 0.264987 0.760214
vt 0.250000 0.757089
vt 0.250000 0.760214
vt 0.233737 0.760214
vt 0.218750 0.757089
vt 0.218750 0.760214
vt 0.202487 0.760214
vt 0.187500 0.757089
vt 0.187500 0.760214
vt 0.171237 0.760214
vt 0.156250 0.757089
vt 0.156250 0.760214
vt 0.139987 0.760214
vt 0.125000 0.757089
vt 0.125000 0.760214
vt 0.108737 0.760214
vt 0.093750 0.757089
vt 0.093750 0.760214
vt 0.062500 0.757089
vt 0.062500 0.760214
vt 0.077487 0.760214
vt 0.046237 0.760214
vt 0.031250 0.757089
vt 0.031250 0.760214
vt 0.014987 0.760214
vt 0.000000 0.757089
vt 0.000000 0.760214
vt 0.468750 0.752991
vt 0.498732 0.752991
vt 0.498732 0.754309
vt 0.468750 0.754309
vt 0.494834 0.781738
vt 0.498732 0.782050
vt 0.468750 0.782050
vt 0.437500 0.782050
vt 0.437500 0.752991
vt 0.437500 0.754309
vt 0.433629 0.780439
vt 0.406250 0.782050
vt 0.406250 0.752991
vt 0.406250 0.754309
vt 0.375000 0.752991
vt 0.375000 0.754309
vt 0.360013 0.754309
vt 0.343750 0.754309
vt 0.343750 0.752991
vt 0.312500 0.754309
vt 0.312500 0.752991
vt 0.312500 0.782050
vt 0.343750 0.782050
vt 0.281250 0.754309
vt 0.281250 0.752991
vt 0.281250 0.782050
vt 0.250000 0.754309
vt 0.250000 0.752991
vt 0.250000 0.782050
vt 0.253762 0.779707
vt 0.218750 0.754309
vt 0.218750 0.752991
vt 0.222508 0.779677
vt 0.218750 0.782050
vt 0.187500 0.754309
vt 0.187500 0.752991
vt 0.187500 0.782050
vt 0.156250 0.754309
vt 0.156250 0.752991
vt 0.125000 0.754309
vt 0.125000 0.752991
vt 0.156250 0.782050
vt 0.125000 0.782050
vt 0.128792 0.779906
vt 0.093750 0.754309
vt 0.093750 0.752991
vt 0.062500 0.754309
vt 0.062500 0.752991
vt 0.062500 0.782050
vt 0.066371 0.780439
vt 0.093750 0.782050
vt 0.031250 0.754309
vt 0.031250 0.752991
vt 0.031250 0.782050
vt 0.001268 0.782050
vt 0.005166 0.781738
vt 0.001268 0.754309
vt 0.001268 0.752991
vt 0.503544 0.009344
vt 0.505107 0.009344
vt 0.505107 0.042958
vt 0.503544 0.042958
vt 0.503544 0.207042
vt 0.505107 0.207042
vt 0.505107 0.240656
vt 0.503544 0.240656
s 0
f 1/1/1 3/2/1 6/3/1 4/4/1
f 4/4/2 6/3/2 12/5/2 10/6/2
f 10/6/3 12/5/3 9/7/3 7/8/3
f 7/8/4 9/7/4 3/9/4 1/10/4
f 130/11/5 10/6/5 7/8/5 128/12/5 124/13/5 120/14/5 122/15/5 121/16/5 123/17/5 125/18/5 126/19/5
f 116/20/5 144/21/5 141/22/5 139/23/5 138/24/5 136/25/5 134/26/5 135/27/5 137/28/5 140/29/5 143/30/5 142/31/5 127/32/5 128/12/5 7/8/5 1/33/5 4/34/5 10/6/5 130/11/5 131/35/5 132/36/5 115/37/5 111/38/5 113/39/5 109/40/5 107/41/5 108/42/5 112/43/5 110/44/5 114/45/5 118/46/5 117/47/5 129/48/5 119/49/5 133/50/5
f 84/51/6 69/52/6 58/53/6 53/54/6 85/55/6 55/56/6 52/57/6 49/58/6 47/59/6 92/60/6 146/61/6 48/62/6 50/63/6 91/64/6 51/65/6 54/66/6 90/67/6 57/68/6 56/69/6 89/70/6 82/71/6 12/5/6 6/72/6 3/73/6 9/7/6 81/74/6 80/75/6 79/76/6 67/77/6 62/78/6 65/79/6 59/80/6 93/81/6 145/82/6 61/83/6 60/84/6 64/85/6 63/86/6 88/87/6 66/88/6 68/89/6 87/90/6 70/91/6 83/92/6 86/93/6 71/94/6
f 81/74/6 9/7/6 12/5/6 82/71/6 78/95/6 72/96/6 75/97/6 73/98/6 74/99/6 77/100/6 76/101/6
f 5/102/7 175/103/7 159/104/7
f 62/105/7 2/106/7 159/104/7 175/103/7 5/102/7 65/107/7
f 43/108/8 173/109/8 160/110/8
f 65/107/8 5/102/8 160/110/8 173/109/8 43/108/8 59/111/8
f 44/112/9 8/113/9 50/114/9
f 51/115/10 91/116/10 102/117/10 50/114/10 8/113/10
f 8/113/10 11/118/10 51/115/10
f 50/114/10 102/117/10 91/116/10
f 11/118/11 13/119/11 54/120/11
f 90/121/12 147/122/12 57/123/12
f 13/119/12 14/124/12 57/123/12
f 147/122/12 90/121/12 54/120/12
f 14/124/13 15/125/13 56/126/13
f 82/127/14 89/128/14 97/129/14 56/126/14 15/125/14
f 15/125/14 16/6/14 82/127/14
f 56/126/14 97/129/14 89/128/14
f 16/6/15 17/130/15 78/131/15
f 18/132/16 183/133/16 148/134/16
f 78/131/16 17/130/16 148/134/16 183/133/16 18/132/16 72/135/16
f 19/136/17 182/137/17 149/138/17
f 72/135/17 18/132/17 149/138/17 182/137/17 19/136/17 75/139/17
f 20/140/18 177/141/18 150/142/18
f 75/139/18 19/136/18 150/142/18 177/141/18 20/140/18 73/143/18
f 21/144/19 174/145/19 151/146/19
f 73/143/19 20/140/19 151/146/19 174/145/19 21/144/19 74/147/19
f 22/148/20 178/149/20 152/150/20
f 74/147/20 21/144/20 152/150/20 178/149/20 22/148/20 77/151/20
f 23/152/21 171/153/21 153/154/21
f 77/151/21 22/148/21 153/154/21 171/153/21 23/152/21 76/155/21
f 24/34/22 184/156/22 154/157/22
f 76/155/22 23/152/22 154/157/22 184/156/22 24/34/22 81/158/22
f 25/159/23 176/160/23 155/161/23
f 81/158/23 24/34/23 155/161/23 176/160/23 25/159/23 80/162/23
f 26/163/24 181/164/24 156/165/24
f 80/162/24 25/159/24 156/165/24 181/164/24 26/163/24 79/166/24
f 27/167/25 172/168/25 157/169/25
f 79/166/25 26/163/25 157/169/25 172/168/25 27/167/25 67/170/25
f 2/171/26 180/172/26 158/173/26
f 67/170/26 27/167/26 158/173/26 180/172/26 2/171/26 62/174/26
f 49/175/27 45/176/27 47/177/27 96/178/27 162/179/27
f 30/180/27 45/176/27 49/175/27
f 47/177/27 162/179/27 96/178/27
f 37/181/28 30/180/28 52/182/28
f 55/183/29 37/181/29 52/182/29 103/184/29 163/185/29
f 38/186/29 37/181/29 55/183/29
f 52/182/29 163/185/29 103/184/29
f 85/187/30 53/188/30 38/186/30 55/183/30 106/189/30
f 39/190/30 38/186/30 53/188/30
f 55/183/30 85/187/30 106/189/30
f 39/190/31 179/191/31 161/192/31
f 58/193/31 41/194/31 161/192/31 179/191/31 39/190/31 53/188/31
f 41/194/32 58/193/32 36/195/32
f 36/195/33 69/196/33 33/197/33
f 164/198/34 105/199/34 71/200/34 32/201/34 84/202/34
f 33/197/34 84/202/34 32/201/34
f 71/200/34 105/199/34 164/198/34
f 86/203/35 165/204/35 71/200/35
f 32/201/35 71/200/35 34/205/35
f 165/204/35 86/203/35 83/206/35
f 34/205/36 83/206/36 35/207/36
f 70/208/37 87/209/37 99/210/37 68/211/37 42/212/37
f 35/207/37 70/208/37 42/212/37
f 68/211/37 99/210/37 87/209/37
f 166/213/38 104/214/38 66/215/38 40/216/38 68/211/38
f 42/212/38 68/211/38 40/216/38
f 66/215/38 104/214/38 166/213/38
f 66/215/39 88/217/39 100/218/39 63/219/39 28/220/39
f 40/216/39 66/215/39 28/220/39
f 63/219/39 100/218/39 88/217/39
f 167/221/40 98/222/40 64/223/40 29/224/40 63/219/40
f 28/220/40 63/219/40 29/224/40
f 64/223/40 98/222/40 167/221/40
f 29/224/41 64/223/41 31/225/41
f 168/226/42 101/227/42 61/228/42 46/229/42 60/230/42
f 31/225/42 60/230/42 46/229/42
f 61/228/42 101/227/42 168/226/42
f 94/231/3 47/232/3 45/233/3 44/234/3 48/235/3 146/236/3 169/237/3
f 92/238/3 94/231/3 169/237/3 146/236/3
f 94/231/3 92/238/3 47/232/3
f 95/239/3 59/240/3 43/241/3 46/242/3 61/243/3 145/244/3 170/245/3
f 93/246/3 95/239/3 170/245/3 145/244/3
f 95/239/3 93/246/3 59/240/3
f 159/247/7 2/248/7 140/249/7 137/250/7 5/251/7
f 160/252/8 5/251/8 137/250/8 135/253/8 43/254/8
f 48/255/9 44/256/9 50/257/9
f 44/256/9 109/258/9 113/259/9 8/260/9
f 8/260/10 113/259/10 111/261/10 11/262/10
f 11/262/11 111/261/11 115/263/11 13/264/11
f 51/265/11 11/262/11 54/266/11
f 13/264/12 115/263/12 132/267/12 14/268/12
f 147/269/12 54/266/12 13/264/12 57/270/12
f 14/268/13 132/267/13 131/271/13 15/272/13
f 57/270/13 14/268/13 56/273/13
f 15/272/14 131/271/14 130/274/14 16/275/14
f 16/275/15 130/274/15 126/276/15 17/277/15
f 82/278/15 16/275/15 78/279/15
f 148/280/16 17/277/16 126/276/16 125/281/16 18/282/16
f 149/283/17 18/282/17 125/281/17 123/284/17 19/285/17
f 150/286/18 19/285/18 123/284/18 121/287/18 20/288/18
f 151/289/19 20/288/19 121/287/19 122/290/19 21/291/19
f 152/292/20 21/291/20 122/290/20 120/293/20 22/294/20
f 153/295/21 22/294/21 120/293/21 124/296/21 23/297/21
f 154/298/22 23/297/22 124/296/22 128/299/22 24/300/22
f 155/301/23 24/300/23 128/299/23 127/302/23 25/303/23
f 142/304/24 26/305/24 156/306/24 25/303/24 127/302/24
f 157/307/25 26/305/25 142/304/25 143/308/25 27/309/25
f 158/310/26 27/309/26 143/308/26 140/311/26 2/312/26
f 108/313/27 107/314/27 45/315/27 30/316/27
f 162/317/27 47/318/27 49/319/27
f 49/319/28 52/320/28 30/316/28
f 112/321/28 108/313/28 30/316/28 37/322/28
f 163/323/29 52/320/29 55/324/29
f 110/325/29 112/321/29 37/322/29 38/326/29
f 114/327/30 110/325/30 38/326/30 39/328/30
f 161/329/31 41/330/31 118/331/31 114/327/31 39/328/31
f 118/331/32 41/330/32 36/332/32 117/333/32
f 69/334/32 36/332/32 58/335/32
f 117/333/33 36/332/33 33/336/33 129/337/33
f 84/338/33 33/336/33 69/334/33
f 32/339/34 119/340/34 129/337/34 33/336/34
f 71/341/34 164/342/34 84/338/34
f 34/343/35 133/344/35 119/340/35 32/339/35
f 165/345/35 83/346/35 34/343/35 71/341/35
f 133/344/36 34/343/36 35/347/36 116/348/36
f 70/349/36 35/347/36 83/346/36
f 42/350/37 144/351/37 116/348/37 35/347/37
f 144/351/38 42/350/38 40/352/38 141/353/38
f 68/354/38 66/355/38 166/356/38
f 28/357/39 139/358/39 141/353/39 40/352/39
f 139/358/40 28/357/40 29/359/40 138/360/40
f 64/361/40 167/362/40 63/363/40
f 138/360/41 29/359/41 31/364/41 136/365/41
f 60/366/41 31/364/41 64/361/41
f 61/367/42 168/368/42 60/366/42
f 136/365/42 31/364/42 46/369/42 134/370/42
f 109/371/3 44/372/3 45/373/3 107/374/3
f 134/375/3 46/376/3 43/377/3 135/378/3
